<svg width="25" height="24" viewBox="0 0 25 24" fill="none" xmlns="http://www.w3.org/2000/svg">
<mask id="mask0_6315_6370" style="mask-type:alpha" maskUnits="userSpaceOnUse" x="2" y="2" width="21" height="20">
<rect x="2.84375" y="2" width="20" height="20" fill="#D9D9D9"/>
</mask>
<g mask="url(#mask0_6315_6370)">
<path d="M12.8438 12.854C13.0244 12.854 13.1808 12.788 13.3128 12.656C13.4448 12.524 13.5108 12.368 13.5108 12.188V8.56201C13.5108 8.39534 13.4448 8.24634 13.3128 8.11501C13.1808 7.98301 13.0244 7.91701 12.8438 7.91701C12.6631 7.91701 12.5068 7.98301 12.3748 8.11501C12.2428 8.24634 12.1768 8.40234 12.1768 8.58301V12.208C12.1768 12.3747 12.2428 12.524 12.3748 12.656C12.5068 12.788 12.6631 12.854 12.8438 12.854ZM12.8438 15.958C13.0384 15.958 13.2051 15.8957 13.3438 15.771C13.4824 15.6457 13.5518 15.472 13.5518 15.25C13.5518 15.0553 13.4824 14.8887 13.3438 14.75C13.2051 14.6113 13.0384 14.542 12.8438 14.542C12.6491 14.542 12.4824 14.6113 12.3438 14.75C12.2051 14.8887 12.1358 15.0553 12.1358 15.25C12.1358 15.472 12.2051 15.6457 12.3438 15.771C12.4824 15.8957 12.6491 15.958 12.8438 15.958ZM12.8438 19.917C11.7464 19.917 10.7151 19.7087 9.74976 19.292C8.78442 18.8753 7.94776 18.3127 7.23976 17.604C6.53109 16.896 5.96842 16.0593 5.55176 15.094C5.13509 14.1287 4.92676 13.0973 4.92676 12C4.92676 10.9027 5.13509 9.87134 5.55176 8.90601C5.96842 7.94067 6.53109 7.10401 7.23976 6.39601C7.94776 5.68734 8.78442 5.12467 9.74976 4.70801C10.7151 4.29134 11.7464 4.08301 12.8438 4.08301C13.9411 4.08301 14.9724 4.29134 15.9378 4.70801C16.9031 5.12467 17.7398 5.68734 18.4478 6.39601C19.1564 7.10401 19.7191 7.94067 20.1358 8.90601C20.5524 9.87134 20.7608 10.9027 20.7608 12C20.7608 13.0973 20.5524 14.1287 20.1358 15.094C19.7191 16.0593 19.1564 16.896 18.4478 17.604C17.7398 18.3127 16.9031 18.8753 15.9378 19.292C14.9724 19.7087 13.9411 19.917 12.8438 19.917ZM12.8438 18.583C14.6631 18.583 16.2151 17.9407 17.4998 16.656C18.7844 15.3713 19.4268 13.8193 19.4268 12C19.4268 10.1807 18.7844 8.62867 17.4998 7.34401C16.2151 6.05934 14.6631 5.41701 12.8438 5.41701C11.0244 5.41701 9.47242 6.05934 8.18776 7.34401C6.90309 8.62867 6.26076 10.1807 6.26076 12C6.26076 13.8193 6.90309 15.3713 8.18776 16.656C9.47242 17.9407 11.0244 18.583 12.8438 18.583Z" fill="#FF3333"/>
</g>
</svg>
