<svg width="24" height="24" viewBox="0 0 24 24" fill="none" xmlns="http://www.w3.org/2000/svg">
<mask id="mask0_6352_5994" style="mask-type:alpha" maskUnits="userSpaceOnUse" x="2" y="2" width="20" height="20">
<rect x="2" y="2" width="20" height="20" fill="#D9D9D9"/>
</mask>
<g mask="url(#mask0_6352_5994)">
<path d="M7.5005 17.6875C7.16717 17.6875 6.88583 17.5692 6.6565 17.3325C6.42717 17.0965 6.3125 16.8189 6.3125 16.4995C6.3125 16.1662 6.43083 15.8849 6.6675 15.6555C6.9035 15.4262 7.18117 15.3115 7.5005 15.3115C7.83383 15.3115 8.11517 15.4299 8.3445 15.6665C8.57383 15.9025 8.6885 16.1802 8.6885 16.4995C8.6885 16.8329 8.57017 17.1142 8.3335 17.3435C8.0975 17.5729 7.81983 17.6875 7.5005 17.6875ZM12.0005 17.6875C11.6672 17.6875 11.3858 17.5692 11.1565 17.3325C10.9272 17.0965 10.8125 16.8189 10.8125 16.4995C10.8125 16.1662 10.9308 15.8849 11.1675 15.6555C11.4035 15.4262 11.6812 15.3115 12.0005 15.3115C12.3338 15.3115 12.6152 15.4299 12.8445 15.6665C13.0738 15.9025 13.1885 16.1802 13.1885 16.4995C13.1885 16.8329 13.0702 17.1142 12.8335 17.3435C12.5975 17.5729 12.3198 17.6875 12.0005 17.6875ZM16.5005 17.6875C16.1672 17.6875 15.8858 17.5692 15.6565 17.3325C15.4272 17.0965 15.3125 16.8189 15.3125 16.4995C15.3125 16.1662 15.4308 15.8849 15.6675 15.6555C15.9035 15.4262 16.1812 15.3115 16.5005 15.3115C16.8338 15.3115 17.1152 15.4299 17.3445 15.6665C17.5738 15.9025 17.6885 16.1802 17.6885 16.4995C17.6885 16.8329 17.5702 17.1142 17.3335 17.3435C17.0975 17.5729 16.8198 17.6875 16.5005 17.6875ZM7.5005 13.1875C7.16717 13.1875 6.88583 13.0692 6.6565 12.8325C6.42717 12.5965 6.3125 12.3189 6.3125 11.9995C6.3125 11.6662 6.43083 11.3849 6.6675 11.1555C6.9035 10.9262 7.18117 10.8115 7.5005 10.8115C7.83383 10.8115 8.11517 10.9299 8.3445 11.1665C8.57383 11.4025 8.6885 11.6802 8.6885 11.9995C8.6885 12.3329 8.57017 12.6142 8.3335 12.8435C8.0975 13.0729 7.81983 13.1875 7.5005 13.1875ZM12.0005 13.1875C11.6672 13.1875 11.3858 13.0692 11.1565 12.8325C10.9272 12.5965 10.8125 12.3189 10.8125 11.9995C10.8125 11.6662 10.9308 11.3849 11.1675 11.1555C11.4035 10.9262 11.6812 10.8115 12.0005 10.8115C12.3338 10.8115 12.6152 10.9299 12.8445 11.1665C13.0738 11.4025 13.1885 11.6802 13.1885 11.9995C13.1885 12.3329 13.0702 12.6142 12.8335 12.8435C12.5975 13.0729 12.3198 13.1875 12.0005 13.1875ZM16.5005 13.1875C16.1672 13.1875 15.8858 13.0692 15.6565 12.8325C15.4272 12.5965 15.3125 12.3189 15.3125 11.9995C15.3125 11.6662 15.4308 11.3849 15.6675 11.1555C15.9035 10.9262 16.1812 10.8115 16.5005 10.8115C16.8338 10.8115 17.1152 10.9299 17.3445 11.1665C17.5738 11.4025 17.6885 11.6802 17.6885 11.9995C17.6885 12.3329 17.5702 12.6142 17.3335 12.8435C17.0975 13.0729 16.8198 13.1875 16.5005 13.1875ZM7.5005 8.68752C7.16717 8.68752 6.88583 8.56919 6.6565 8.33252C6.42717 8.09652 6.3125 7.81886 6.3125 7.49952C6.3125 7.16619 6.43083 6.88486 6.6675 6.65552C6.9035 6.42619 7.18117 6.31152 7.5005 6.31152C7.83383 6.31152 8.11517 6.42986 8.3445 6.66652C8.57383 6.90252 8.6885 7.18019 8.6885 7.49952C8.6885 7.83286 8.57017 8.11419 8.3335 8.34352C8.0975 8.57286 7.81983 8.68752 7.5005 8.68752ZM12.0005 8.68752C11.6672 8.68752 11.3858 8.56919 11.1565 8.33252C10.9272 8.09652 10.8125 7.81886 10.8125 7.49952C10.8125 7.16619 10.9308 6.88486 11.1675 6.65552C11.4035 6.42619 11.6812 6.31152 12.0005 6.31152C12.3338 6.31152 12.6152 6.42986 12.8445 6.66652C13.0738 6.90252 13.1885 7.18019 13.1885 7.49952C13.1885 7.83286 13.0702 8.11419 12.8335 8.34352C12.5975 8.57286 12.3198 8.68752 12.0005 8.68752ZM16.5005 8.68752C16.1672 8.68752 15.8858 8.56919 15.6565 8.33252C15.4272 8.09652 15.3125 7.81886 15.3125 7.49952C15.3125 7.16619 15.4308 6.88486 15.6675 6.65552C15.9035 6.42619 16.1812 6.31152 16.5005 6.31152C16.8338 6.31152 17.1152 6.42986 17.3445 6.66652C17.5738 6.90252 17.6885 7.18019 17.6885 7.49952C17.6885 7.83286 17.5702 8.11419 17.3335 8.34352C17.0975 8.57286 16.8198 8.68752 16.5005 8.68752Z" fill="white"/>
</g>
</svg>
